<svg width="12" height="12" viewBox="0 0 12 12" fill="none" xmlns="http://www.w3.org/2000/svg">
<path d="M10.0964 7.64373C10.068 7.71226 10.02 7.77084 9.95832 7.81205C9.89666 7.85327 9.82416 7.87528 9.74999 7.8753H2.24999C2.17578 7.87535 2.10322 7.85339 2.0415 7.81219C1.97977 7.77099 1.93166 7.7124 1.90326 7.64384C1.87485 7.57528 1.86742 7.49984 1.88192 7.42705C1.89641 7.35427 1.93217 7.28743 1.98468 7.23498L5.73468 3.48498C5.76951 3.45012 5.81086 3.42246 5.85639 3.40359C5.90191 3.38471 5.95071 3.375 5.99999 3.375C6.04927 3.375 6.09807 3.38471 6.14359 3.40359C6.18912 3.42246 6.23048 3.45012 6.2653 3.48498L10.0153 7.23498C10.0677 7.28746 10.1034 7.3543 10.1179 7.42706C10.1323 7.49981 10.1248 7.57522 10.0964 7.64373Z" fill="currentColor"/>
</svg>
